<?xml version="1.0" encoding="UTF-8"?>
<svg version="1.1" xmlns="http://www.w3.org/2000/svg" width="165" height="165">
<path d="M0 0 C0.66 0.99 1.32 1.98 2 3 C4.08029888 4.07988288 4.08029888 4.07988288 6.4375 4.9375 C9.96044835 6.42471576 12.22496732 7.44993464 14 11 C14.35169068 12.32860925 14.68770276 13.66158328 15 15 C16.8253125 15.3403125 16.8253125 15.3403125 18.6875 15.6875 C23.02773685 16.81303211 25.40816616 18.19324404 28 22 C28.44741406 25.05386105 28.44182022 27.9451288 28 31 C27 32 27 32 23.9375 32.0625 C22.968125 32.041875 21.99875 32.02125 21 32 C20.5978125 30.824375 20.5978125 30.824375 20.1875 29.625 C19.15185568 26.71885077 19.15185568 26.71885077 16 25 C15.67 25.66 15.34 26.32 15 27 C15.99 27.33 16.98 27.66 18 28 C18.495 29.98 18.495 29.98 19 32 C8.11 32 -2.78 32 -14 32 C-13 25 -13 25 -11 23 C-7.375 23.375 -7.375 23.375 -4 24 C-4.495 23.01 -4.495 23.01 -5 22 C-8.37400578 21.58274322 -8.37400578 21.58274322 -12 22 C-14.82227679 25.29265625 -15.1277933 27.63896648 -16 32 C-21.61 32 -27.22 32 -33 32 C-33 26 -33 26 -32 24 C-32.99 24 -33.98 24 -35 24 C-35.33 26.64 -35.66 29.28 -36 32 C-42.15234375 32.09765625 -42.15234375 32.09765625 -44 32 C-45.55950551 30.44049449 -45.28196698 28.91122869 -45.375 26.75 C-45.31755637 23.14253975 -45.083605 22.1254075 -43 19 C-39.13303207 16.42202138 -36.60354748 16.23407869 -32 16 C-31.82984375 15.37351562 -31.6596875 14.74703125 -31.484375 14.1015625 C-31.24203125 13.28429687 -30.9996875 12.46703125 -30.75 11.625 C-30.51796875 10.81289063 -30.2859375 10.00078125 -30.046875 9.1640625 C-29 7 -29 7 -27.15625 5.71875 C-24.86993357 4.95664452 -23.15026751 4.79499108 -20.75 4.875 C-18.89375 4.936875 -18.89375 4.936875 -17 5 C-16.690625 3.8553125 -16.690625 3.8553125 -16.375 2.6875 C-15 0 -15 0 -12.4375 -2 C-7.73437996 -3.36818038 -4.27071286 -2.30618495 0 0 Z M0 10 C-0.33 10.99 -0.66 11.98 -1 13 C0.423125 13.37125 0.423125 13.37125 1.875 13.75 C5 15 5 15 6.375 17.125 C6.684375 18.053125 6.684375 18.053125 7 19 C7.33 19 7.66 19 8 19 C7.81870185 15.56206661 7.81870185 15.56206661 7 12 C4.4664092 10.05758039 3.21812786 10 0 10 Z M-25 13.8125 C-26.20787988 16.05386471 -26.20787988 16.05386471 -26 19 C-25.34 19 -24.68 19 -24 19 C-23.67 17.68 -23.34 16.36 -23 15 C-20.69 15 -18.38 15 -16 15 C-15.67 14.01 -15.34 13.02 -15 12 C-20.49727625 11.34893621 -20.49727625 11.34893621 -25 13.8125 Z " fill="#F0D08C" transform="translate(92,44)"/>
<path d="M0 0 C4.29 0 8.58 0 13 0 C14.90688404 12.49875811 14.90688404 12.49875811 12.73046875 16.1015625 C11.62483769 17.15281826 10.50896056 18.1934093 9.3828125 19.22265625 C6.95765941 22.33973154 7.38362967 25.66847321 7.59765625 29.46875 C8.09018961 32.56740649 8.93970592 34.6227376 11 37 C11.66 37.33 12.32 37.66 13 38 C15.27266554 46.53731751 13.65546295 56.30755292 13 65 C9.37 65 5.74 65 2 65 C1.58484943 56.96834644 1.17585379 48.93641328 0.77473354 40.90404797 C0.58828784 37.17439495 0.39971596 33.44487467 0.20629883 29.71557617 C0.01975327 26.11726188 -0.16122527 22.51870697 -0.33833122 18.91991615 C-0.40691462 17.54628754 -0.47751059 16.1727579 -0.55014229 14.79933739 C-0.65145135 12.87715832 -0.74497217 10.95457354 -0.83813477 9.03198242 C-0.89365005 7.93722092 -0.94916534 6.84245941 -1.00636292 5.71452332 C-1 3 -1 3 0 0 Z " fill="#F6D38F" transform="translate(61,87)"/>
<path d="M0 0 C3.63 0 7.26 0 11 0 C12.45602329 21.70481525 13.31412739 43.24063706 13 65 C10.03 65 7.06 65 4 65 C3.42240732 58.15452821 2.85309544 51.30843296 2.29101562 44.46166992 C2.09920775 42.13889585 1.90524832 39.81629829 1.70898438 37.49389648 C0.65278587 24.97848307 -0.37294453 12.56745379 0 0 Z " fill="#EECD8E" transform="translate(47,87)"/>
<path d="M0 0 C4.29 0 8.58 0 13 0 C13.02494747 4.80142856 13.04297577 9.60281836 13.05493164 14.40429688 C13.05992239 16.03353534 13.06671735 17.66276942 13.07543945 19.29199219 C13.20201822 43.56533309 13.20201822 43.56533309 10.0625 47.3125 C9.381875 47.869375 8.70125 48.42625 8 49 C5.58630951 53.34464287 5.76518673 57.14719251 6 62 C6.33 62.99 6.66 63.98 7 65 C4.69 65 2.38 65 0 65 C-0.11608127 60.58355402 -0.1872132 56.16749983 -0.25 51.75 C-0.28351563 50.49574219 -0.31703125 49.24148437 -0.3515625 47.94921875 C-0.36445312 46.74394531 -0.37734375 45.53867188 -0.390625 44.296875 C-0.41157227 43.18666992 -0.43251953 42.07646484 -0.45410156 40.93261719 C0.10305208 37.33448303 1.27053113 36.30795923 4 34 C6.58575498 29.8862989 5.85428731 26.70429328 4.8984375 22.18359375 C4.12731544 19.83604391 4.12731544 19.83604391 1.9296875 18.23828125 C-0.8749412 14.98513905 -0.43711782 11.82341093 -0.25 7.75 C-0.23195313 7.00492187 -0.21390625 6.25984375 -0.1953125 5.4921875 C-0.14835649 3.66090299 -0.07661652 1.83028351 0 0 Z " fill="#E0C28B" transform="translate(95,87)"/>
<path d="M0 0 C3.20072789 2.5417545 4.73822574 4.55296216 6.0625 8.4375 C6.14972483 12.97319102 4.67676828 15.99070749 2.125 19.6875 C-1.41491551 22.91507002 -5.56959767 23.53057557 -10.234375 23.88671875 C-14.75562555 23.54561849 -18.42720127 21.57800367 -21.875 18.6875 C-24.19165955 14.99555366 -24.25504169 12.01997527 -23.875 7.6875 C-22.05701807 3.57311983 -19.56925713 1.21040731 -15.875 -1.3125 C-10.57755129 -3.0709892 -5.00987328 -2.28711606 0 0 Z " fill="#E4C589" transform="translate(93.875,103.3125)"/>
<path d="M0 0 C26.73 0 53.46 0 81 0 C81 1.98 81 3.96 81 6 C74.32204183 7.2235633 67.71091662 7.14416857 60.9375 7.1328125 C59.04136963 7.13424759 59.04136963 7.13424759 57.10693359 7.13571167 C54.43404699 7.13639101 51.76125231 7.13506116 49.08837891 7.13037109 C45.70750732 7.12471999 42.32671528 7.12801291 38.94584656 7.13382339 C12.180461 7.17263649 12.180461 7.17263649 0 6 C0 4.02 0 2.04 0 0 Z " fill="#F4D08D" transform="translate(44,79)"/>
<path d="M0 0 C2.05078125 0.03255208 4.1015625 0.06510417 6.15234375 0.09765625 C6.38749109 10.1425844 5.66037625 19.93469374 4.65234375 29.91015625 C4.50723972 31.39252217 4.36270525 32.87494395 4.21875 34.35742188 C3.86982046 37.93816563 3.51327515 41.51809989 3.15234375 45.09765625 C-0.31265625 45.59265625 -0.31265625 45.59265625 -3.84765625 46.09765625 C-4.67295641 43.24923244 -4.93683354 40.85317819 -4.79345703 37.89575195 C-4.75656769 37.07843094 -4.71967834 36.26110992 -4.68167114 35.41902161 C-4.61301346 34.10945747 -4.61301346 34.10945747 -4.54296875 32.7734375 C-4.49953339 31.87143112 -4.45609802 30.96942474 -4.41134644 30.04008484 C-4.31829822 28.13782646 -4.22229286 26.23571074 -4.12353516 24.33374023 C-3.97269899 21.41098434 -3.83334012 18.4878389 -3.6953125 15.56445312 C-3.60354745 13.71741386 -3.51112248 11.87040725 -3.41796875 10.0234375 C-3.37624542 9.14432205 -3.33452209 8.2652066 -3.29153442 7.35945129 C-2.90626342 0.153608 -2.90626342 0.153608 0 0 Z " fill="#DCBB88" transform="translate(113.84765625,86.90234375)"/>
<path d="M0 0 C4.95 0 9.9 0 15 0 C15 7.92 15 15.84 15 24 C10.05 24 5.1 24 0 24 C-1.27491216 21.45017567 -1.02596616 19.83534576 -0.87890625 16.9921875 C-0.83056641 16.00605469 -0.78222656 15.01992187 -0.73242188 14.00390625 C-0.67634766 12.97136719 -0.62027344 11.93882812 -0.5625 10.875 C-0.51029297 9.83472656 -0.45808594 8.79445312 -0.40429688 7.72265625 C-0.27439249 5.14818761 -0.13782019 2.57405702 0 0 Z " fill="#F4D18C" transform="translate(77,128)"/>
<path d="M0 0 C1.32 0.99 2.64 1.98 4 3 C3.34 4.32 2.68 5.64 2 7 C2.845625 6.938125 3.69125 6.87625 4.5625 6.8125 C8.73619843 7.04015628 11.25432947 8.20207814 15 10 C14.01 10.495 14.01 10.495 13 11 C13 13.31 13 15.62 13 18 C7.72 18 2.44 18 -3 18 C-2.67 15.69 -2.34 13.38 -2 11 C-2.99 11 -3.98 11 -5 11 C-5.33 13.64 -5.66 16.28 -6 19 C-12.15234375 19.09765625 -12.15234375 19.09765625 -14 19 C-15.55950551 17.44049449 -15.28196698 15.91122869 -15.375 13.75 C-15.30736725 10.21618871 -15.04035003 9.06590505 -13.125 5.9375 C-8.74285731 3.22057153 -5.02458408 3.56095867 0 4 C0 2.68 0 1.36 0 0 Z " fill="#F4D28E" transform="translate(62,57)"/>
<path d="M0 0 C0.05841253 3.54159657 0.09373452 7.08306793 0.125 10.625 C0.15013672 12.12353516 0.15013672 12.12353516 0.17578125 13.65234375 C0.21014246 18.84088709 0.10254937 23.14923649 -2 28 C-2.66 28 -3.32 28 -4 28 C-4.1946838 30.77050026 -4.38102792 33.54113002 -4.5625 36.3125 C-4.61857422 37.09818359 -4.67464844 37.88386719 -4.73242188 38.69335938 C-4.78076172 39.45068359 -4.82910156 40.20800781 -4.87890625 40.98828125 C-4.9260376 41.68477783 -4.97316895 42.38127441 -5.02172852 43.09887695 C-5.09418115 45.22639828 -5.09418115 45.22639828 -4 48 C-6.31 48 -8.62 48 -11 48 C-11.11608127 43.58355402 -11.1872132 39.16749983 -11.25 34.75 C-11.28351563 33.49574219 -11.31703125 32.24148437 -11.3515625 30.94921875 C-11.36445312 29.74394531 -11.37734375 28.53867188 -11.390625 27.296875 C-11.41157227 26.18666992 -11.43251953 25.07646484 -11.45410156 23.93261719 C-10.89720033 20.33611312 -9.71766191 19.31629212 -7 17 C-4.79167091 12.81579751 -4.37583513 8.6603556 -4 4 C-4.33 3.01 -4.66 2.02 -5 1 C-3 0 -3 0 0 0 Z " fill="#F4D28C" transform="translate(106,104)"/>
<path d="M0 0 C4.29 0 8.58 0 13 0 C13.19441368 2.2910905 13.38033135 4.58290337 13.5625 6.875 C13.66691406 8.15117188 13.77132812 9.42734375 13.87890625 10.7421875 C14 14 14 14 13 16 C12.34 16 11.68 16 11 16 C11 15.01 11 14.02 11 13 C6.19704692 14.44861117 6.19704692 14.44861117 3 17.9375 C2.91662838 19.96715663 2.91662838 19.96715663 3.4375 21.75 C4.29321046 25.17284185 4.05870335 28.4777992 4 32 C3.67 32 3.34 32 3 32 C2.67 35.96 2.34 39.92 2 44 C1.67 44 1.34 44 1 44 C0.689553 38.21626224 0.38658546 32.43219977 0.09057617 26.64770508 C-0.01120243 24.67949838 -0.11503264 22.71139666 -0.22094727 20.7434082 C-0.37273618 17.9164288 -0.5171694 15.08915531 -0.66015625 12.26171875 C-0.70906509 11.38037766 -0.75797394 10.49903656 -0.80836487 9.59098816 C-0.8484819 8.77036392 -0.88859894 7.94973969 -0.92993164 7.10424805 C-0.96768204 6.38254929 -1.00543243 5.66085052 -1.04432678 4.9172821 C-1 3 -1 3 0 0 Z " fill="#EBC88B" transform="translate(61,87)"/>
<path d="M0 0 C2.56346181 0.68135159 2.56346181 0.68135159 4.8125 -0.0625 C5.410625 -0.206875 6.00875 -0.35125 6.625 -0.5 C8.625 1.5 8.625 1.5 8.75 4.125 C8.70875 4.90875 8.6675 5.6925 8.625 6.5 C9.285 6.83 9.945 7.16 10.625 7.5 C11 9.6875 11 9.6875 10.625 12.5 C8 15.375 8 15.375 4.625 17.5 C-0.36911295 17.60404402 -3.43951299 15.40476422 -7.375 12.5 C-6.5 7.75 -6.5 7.75 -5.375 5.5 C-5.230625 4.654375 -5.08625 3.80875 -4.9375 2.9375 C-4.751875 2.133125 -4.56625 1.32875 -4.375 0.5 C-2.375 -0.5 -2.375 -0.5 0 0 Z " fill="#E1C287" transform="translate(56.375,20.5)"/>
<path d="M0 0 C3.96 0 7.92 0 12 0 C12.33 1.32 12.66 2.64 13 4 C13.66152556 6.3347961 14.32741333 8.66836622 15 11 C9 17 9 17 6.75 17.25 C3.45736358 16.95066942 1.71373961 15.83360785 -1 14 C-1.66 13.67 -2.32 13.34 -3 13 C-3.20086443 9.28400809 -3.1519437 8.22791555 -1 5 C-0.67 3.35 -0.34 1.7 0 0 Z " fill="#D6BA84" transform="translate(22,45)"/>
<path d="M0 0 C0.825 0.20625 1.65 0.4125 2.5 0.625 C3.49 0.295 4.48 -0.035 5.5 -0.375 C6.49 0.285 7.48 0.945 8.5 1.625 C8.54165365 3.29114608 8.54165365 4.95885392 8.5 6.625 C9.16 7.285 9.82 7.945 10.5 8.625 C10.5 11.99885866 9.1371877 12.99605803 6.75 15.4375 C3.5 17.625 3.5 17.625 1 17.6875 C-2.23637411 16.312041 -4.79494574 14.88969659 -7.5 12.625 C-7.875 9.875 -7.875 9.875 -7.5 7.625 C-6.51 7.625 -5.52 7.625 -4.5 7.625 C-4.726875 6.861875 -4.95375 6.09875 -5.1875 5.3125 C-5.5 2.625 -5.5 2.625 -4.375 0.75 C-2.5 -0.375 -2.5 -0.375 0 0 Z " fill="#F2CF8B" transform="translate(123.5,27.375)"/>
<path d="M0 0 C1.51400391 0.01740234 1.51400391 0.01740234 3.05859375 0.03515625 C4.07050781 0.04417969 5.08242187 0.05320313 6.125 0.0625 C7.29869141 0.07990234 7.29869141 0.07990234 8.49609375 0.09765625 C8.61984375 0.86078125 8.74359375 1.62390625 8.87109375 2.41015625 C9.37712167 5.30032761 9.37712167 5.30032761 11.49609375 8.09765625 C11.62109375 10.78515625 11.62109375 10.78515625 11.49609375 13.09765625 C10.50609375 13.42765625 9.51609375 13.75765625 8.49609375 14.09765625 C7.50609375 15.58265625 7.50609375 15.58265625 6.49609375 17.09765625 C3.37109375 17.28515625 3.37109375 17.28515625 0.49609375 17.09765625 C-0.16390625 15.77765625 -0.82390625 14.45765625 -1.50390625 13.09765625 C-2.82390625 13.09765625 -4.14390625 13.09765625 -5.50390625 13.09765625 C-6.38212644 10.63863971 -6.69613853 9.53704432 -5.62890625 7.09765625 C-5.25765625 6.43765625 -4.88640625 5.77765625 -4.50390625 5.09765625 C-4.16163208 3.76659003 -3.82638882 2.43365546 -3.50390625 1.09765625 C-2.50390625 0.09765625 -2.50390625 0.09765625 0 0 Z " fill="#EFCD8A" transform="translate(124.50390625,134.90234375)"/>
<path d="M0 0 C1.79133978 -0.05391993 3.58313899 -0.09275571 5.375 -0.125 C6.37273437 -0.14820313 7.37046875 -0.17140625 8.3984375 -0.1953125 C11 0 11 0 13 2 C12.6875 4.0625 12.6875 4.0625 12 7 C11.72976368 9.36759285 11.50124004 11.73662525 11.28125 14.109375 C11 16 11 16 10 17 C3.57902511 17.47562777 3.57902511 17.47562777 1.25 15.5625 C0.63125 14.7890625 0.63125 14.7890625 0 14 C-0.99 13.67 -1.98 13.34 -3 13 C-3.33 12.01 -3.66 11.02 -4 10 C-3.34 9.01 -2.68 8.02 -2 7 C-1.29187186 4.67891331 -0.61975848 2.34622853 0 0 Z " fill="#E4C387" transform="translate(105,135)"/>
<path d="M0 0 C26.73 0 53.46 0 81 0 C81 1.98 81 3.96 81 6 C75.05321546 7.03844153 69.28195714 7.12972884 63.25390625 7.09765625 C62.24279282 7.0962413 61.23167938 7.09482635 60.18992615 7.09336853 C56.98075319 7.08779961 53.77165164 7.07525287 50.5625 7.0625 C48.37825622 7.05748098 46.19401134 7.05291878 44.00976562 7.04882812 C38.67315298 7.03784037 33.3365816 7.02113336 28 7 C28 6.67 28 6.34 28 6 C41.2 5.67 54.4 5.34 68 5 C68 3.68 68 2.36 68 1 C45.89 1 23.78 1 1 1 C1 2.32 1 3.64 1 5 C3.97 5 6.94 5 10 5 C10 5.33 10 5.66 10 6 C6.7 6 3.4 6 0 6 C0 4.02 0 2.04 0 0 Z " fill="#CCB28E" transform="translate(44,79)"/>
<path d="M0 0 C0.33 0 0.66 0 1 0 C1.03738281 0.59167969 1.07476562 1.18335937 1.11328125 1.79296875 C1.51054897 6.56797099 1.95668 10.1045504 5 14 C5.66 14.33 6.32 14.66 7 15 C9.27266554 23.53731751 7.65546295 33.30755292 7 42 C6.34 41.34 5.68 40.68 5 40 C5 38.68 5 37.36 5 36 C4.34 36 3.68 36 3 36 C3 35.01 3 34.02 3 33 C2.34 33 1.68 33 1 33 C1 32.34 1 31.68 1 31 C0.01 30.67 -0.98 30.34 -2 30 C-2.05422947 28.5629191 -2.09289723 27.12524538 -2.125 25.6875 C-2.14820312 24.88699219 -2.17140625 24.08648437 -2.1953125 23.26171875 C-2 21 -2 21 0 18 C1.29853667 15.40292666 0.73460865 14.79151288 0 12 C-1.41971831 3.78591549 -1.41971831 3.78591549 0 0 Z " fill="#F2CE8B" transform="translate(67,110)"/>
<path d="M0 0 C4.95 0 9.9 0 15 0 C15 4.29 15 8.58 15 13 C10.05 13 5.1 13 0 13 C0 8.71 0 4.42 0 0 Z " fill="#DEBF8D" transform="translate(77,87)"/>
<path d="M0 0 C0.99 0.33 1.98 0.66 3 1 C3 1.66 3 2.32 3 3 C3.66 2.34 4.32 1.68 5 1 C9.69619661 -0.06102674 14.34277373 -0.35209795 19 1 C17.02579865 3.52259061 16.03254358 3.9929808 12.8125 4.6875 C11.4203125 4.8421875 11.4203125 4.8421875 10 5 C10 5.99 10 6.98 10 8 C10.9590625 8.1546875 10.9590625 8.1546875 11.9375 8.3125 C12.9584375 8.6528125 12.9584375 8.6528125 14 9 C15.25541557 12.76624671 14.37061958 14.37188934 13 18 C6.57142857 16.92857143 6.57142857 16.92857143 4 15 C3.25 11.875 3.25 11.875 3 9 C2.34 9 1.68 9 1 9 C0.67 6.03 0.34 3.06 0 0 Z " fill="#F3CF8D" transform="translate(79,48)"/>
<path d="M0 0 C0.66 0.33 1.32 0.66 2 1 C2 1.99 2 2.98 2 4 C4.31 4.33 6.62 4.66 9 5 C9 6.65 9 8.3 9 10 C8.34 9.67 7.68 9.34 7 9 C7.33 8.34 7.66 7.68 8 7 C7.01 7 6.02 7 5 7 C4.67 9.64 4.34 12.28 4 15 C-2.15234375 15.09765625 -2.15234375 15.09765625 -4 15 C-5.55950551 13.44049449 -5.28196698 11.91122869 -5.375 9.75 C-5.36241713 5.8052706 -5.14662494 5.17961556 -2.5 1.9375 C-1.2625 0.9784375 -1.2625 0.9784375 0 0 Z " fill="#ECCE8E" transform="translate(52,61)"/>
<path d="M0 0 C4.95 0 9.9 0 15 0 C15 7.92 15 15.84 15 24 C10.05 24 5.1 24 0 24 C-1.27491216 21.45017567 -1.02596616 19.83534576 -0.87890625 16.9921875 C-0.83056641 16.00605469 -0.78222656 15.01992187 -0.73242188 14.00390625 C-0.67634766 12.97136719 -0.62027344 11.93882812 -0.5625 10.875 C-0.51029297 9.83472656 -0.45808594 8.79445312 -0.40429688 7.72265625 C-0.27439249 5.14818761 -0.13782019 2.57405702 0 0 Z M2 2 C2 8.6 2 15.2 2 22 C5.96 22 9.92 22 14 22 C14 15.4 14 8.8 14 2 C10.04 2 6.08 2 2 2 Z " fill="#C7AF8E" transform="translate(77,128)"/>
<path d="M0 0 C0.66 0.66 1.32 1.32 2 2 C2.99 2.33 3.98 2.66 5 3 C5.144375 4.093125 5.28875 5.18625 5.4375 6.3125 C5.88288104 9.93122987 5.88288104 9.93122987 7 13 C6.87890625 15.26171875 6.87890625 15.26171875 6.5625 17.6875 C6.46066406 18.49574219 6.35882813 19.30398437 6.25390625 20.13671875 C6.12822266 21.05904297 6.12822266 21.05904297 6 22 C3.69 22.33 1.38 22.66 -1 23 C-0.67 15.41 -0.34 7.82 0 0 Z " fill="#F5D18B" transform="translate(111,110)"/>
<path d="M0 0 C2.66698331 0.73853737 2.66698331 0.73853737 5.5625 -0.5 C6.5525 0.16 7.5425 0.82 8.5625 1.5 C8.60415365 3.16614608 8.60415365 4.83385392 8.5625 6.5 C9.2225 7.16 9.8825 7.82 10.5625 8.5 C10.5625 11.87385866 9.1996877 12.87105803 6.8125 15.3125 C3.5625 17.5 3.5625 17.5 0.6875 17.3125 C-0.01375 17.044375 -0.715 16.77625 -1.4375 16.5 C-1.4375 14.85 -1.4375 13.2 -1.4375 11.5 C-0.014375 11.066875 -0.014375 11.066875 1.4375 10.625 C4.61461578 9.73174891 4.61461578 9.73174891 6.5625 7.5 C6.72937448 4.91645782 6.72937448 4.91645782 6.5625 2.5 C4.9370692 2.64095064 3.31215949 2.78792087 1.6875 2.9375 C0.78257813 3.01871094 -0.12234375 3.09992187 -1.0546875 3.18359375 C-3.44860861 3.36989285 -3.44860861 3.36989285 -5.4375 4.5 C-5.0625 2.5625 -5.0625 2.5625 -4.4375 0.5 C-2.4375 -0.5 -2.4375 -0.5 0 0 Z " fill="#E8CC8B" transform="translate(123.4375,27.5)"/>
<path d="M0 0 C3.625 0.375 3.625 0.375 7 1 C6.42415568 3.38564077 5.77772405 5.66682784 5 8 C12.59 8 20.18 8 28 8 C27.67 6.68 27.34 5.36 27 4 C28.5 5.375 28.5 5.375 30 7 C30 7.66 30 8.32 30 9 C19.11 9 8.22 9 -3 9 C-2 2 -2 2 0 0 Z " fill="#D0B68D" transform="translate(81,67)"/>
<path d="M0 0 C3 2 3 2 3.6875 4.625 C3.790625 5.40875 3.89375 6.1925 4 7 C3.38125 7.4125 2.7625 7.825 2.125 8.25 C-0.06768281 10.05573879 -0.92788417 11.4090534 -2 14 C-4.31 14 -6.62 14 -9 14 C-8.59579069 8.34106967 -6.79663015 5.97742206 -3 2 C-2.01 1.34 -1.02 0.68 0 0 Z " fill="#D0B97E" transform="translate(108,27)"/>
<path d="M0 0 C3.96 0 7.92 0 12 0 C12 1.32 12 2.64 12 4 C6.4192333 6.36140787 1.29731643 6.2582471 -4.6484375 6.1953125 C-5.66096588 6.1924826 -6.67349426 6.18965271 -7.71670532 6.18673706 C-10.93625938 6.17558254 -14.15553065 6.15048646 -17.375 6.125 C-19.56379805 6.1149641 -21.75260049 6.10583931 -23.94140625 6.09765625 C-29.29436658 6.0756587 -34.64716308 6.04222824 -40 6 C-40 5.67 -40 5.34 -40 5 C-26.8 4.67 -13.6 4.34 0 4 C0 2.68 0 1.36 0 0 Z " fill="#C4AF7E" transform="translate(112,80)"/>
<path d="M0 0 C3.92775068 0.89267061 5.70652528 1.66018716 8.375 4.75 C10.09945894 8.19891788 10.36139933 10.205307 10 14 C8.02 14 6.04 14 4 14 C3.566875 13.05125 3.13375 12.1025 2.6875 11.125 C1.20697799 7.79958063 1.20697799 7.79958063 -2 6 C-1.34 4.02 -0.68 2.04 0 0 Z " fill="#D9C086" transform="translate(126,113)"/>
<path d="M0 0 C1.32 0 2.64 0 4 0 C5.83691257 3.78187881 6.15837626 5.94568308 5 10 C3.02 10.66 1.04 11.32 -1 12 C-1.61875 11.2265625 -1.61875 11.2265625 -2.25 10.4375 C-2.8275 9.963125 -3.405 9.48875 -4 9 C-6.16299211 9.22757731 -6.16299211 9.22757731 -8 10 C-8 8.68 -8 7.36 -8 6 C-7.34 5.67 -6.68 5.34 -6 5 C-4.86649466 2.98330173 -4.86649466 2.98330173 -4 1 C-3.34 1.99 -2.68 2.98 -2 4 C-1.67 4.33 -1.34 4.66 -1 5 C-0.67 3.35 -0.34 1.7 0 0 Z " fill="#F7D58D" transform="translate(29,48)"/>
<path d="M0 0 C2.9651327 0.32945919 4.78260543 0.84903155 7.25 2.5625 C9.73398489 6.0223361 9.7184615 8.77692253 10 13 C8 14 8 14 6.125 13.9375 C2.80877365 12.47445896 1.7308649 10.10361982 0 7 C-1.3 2.6 -1.3 2.6 0 0 Z " fill="#DDC581" transform="translate(43,42)"/>
<path d="M0 0 C2.75 0.125 2.75 0.125 6 1 C8.89228406 4.43947293 10.61328856 7.4883665 11 12 C10 13 10 13 6.9375 13.0625 C5.968125 13.041875 4.99875 13.02125 4 13 C3 11 2 9 1 7 C0.38125 5.9171875 0.38125 5.9171875 -0.25 4.8125 C-1 3 -1 3 0 0 Z " fill="#F7DA91" transform="translate(77,19)"/>
<path d="M0 0 C0.21269531 0.92619141 0.21269531 0.92619141 0.4296875 1.87109375 C0.92542641 4.05574846 0.92542641 4.05574846 2.125 6.0625 C3 8 3 8 2 11 C0.1875 12.75 0.1875 12.75 -2 14 C-3.32 13.67 -4.64 13.34 -6 13 C-6 21.25 -6 29.5 -6 38 C-5.01 38 -4.02 38 -3 38 C-3 35.36 -3 32.72 -3 30 C-2.67 30 -2.34 30 -2 30 C-1.34 32.97 -0.68 35.94 0 39 C-2.31 39 -4.62 39 -7 39 C-7.11608127 34.58355402 -7.1872132 30.16749983 -7.25 25.75 C-7.28351563 24.49574219 -7.31703125 23.24148437 -7.3515625 21.94921875 C-7.36445312 20.74394531 -7.37734375 19.53867188 -7.390625 18.296875 C-7.41157227 17.18666992 -7.43251953 16.07646484 -7.45410156 14.93261719 C-6.89763178 11.33889942 -5.71468925 10.31462978 -3 8 C-1.91590916 5.90324347 -1.91590916 5.90324347 -1.25 3.75 C-0.8375 2.5125 -0.425 1.275 0 0 Z " fill="#D8BC9C" transform="translate(102,113)"/>
<path d="M0 0 C2.79173055 -0.02690104 5.58320348 -0.04679053 8.375 -0.0625 C9.56609375 -0.07506836 9.56609375 -0.07506836 10.78125 -0.08789062 C16.7734375 -0.11328125 16.7734375 -0.11328125 19 1 C19 2.32 19 3.64 19 5 C14.643098 6.19127531 11.12042737 5.76679687 6.6875 5.0625 C5.43324219 4.86785156 4.17898437 4.67320313 2.88671875 4.47265625 C1.93410156 4.31667969 0.98148438 4.16070312 0 4 C0 2.68 0 1.36 0 0 Z " fill="#F7D68D" transform="translate(45,80)"/>
<path d="M0 0 C0.33 0.99 0.66 1.98 1 3 C0 4 0 4 -3.0625 4.0625 C-4.031875 4.041875 -5.00125 4.02125 -6 4 C-5.34 5.32 -4.68 6.64 -4 8 C-3.01 8 -2.02 8 -1 8 C-1 8.66 -1 9.32 -1 10 C-0.01 10.33 0.98 10.66 2 11 C1.01 13.97 0.02 16.94 -1 20 C-6.61 20 -12.22 20 -18 20 C-18 19.67 -18 19.34 -18 19 C-12.72 19 -7.44 19 -2 19 C-2 16.36 -2 13.72 -2 11 C-6.1205746 9.00214565 -9.45194365 8.82164485 -14 9 C-13.34 7.35 -12.68 5.7 -12 4 C-11.67 4.99 -11.34 5.98 -11 7 C-10.34 7 -9.68 7 -9 7 C-8.67 5.68 -8.34 4.36 -8 3 C-6.865625 2.87625 -5.73125 2.7525 -4.5625 2.625 C-3.386875 2.41875 -2.21125 2.2125 -1 2 C-0.67 1.34 -0.34 0.68 0 0 Z " fill="#CDB489" transform="translate(77,56)"/>
<path d="M0 0 C3.63 0 7.26 0 11 0 C11.65883499 6.67070428 12.12158964 13.296093 12.1875 20 C12.20167969 21.2375 12.21585938 22.475 12.23046875 23.75 C12 27 12 27 10 31 C9.67 21.76 9.34 12.52 9 3 C6.36 2.67 3.72 2.34 1 2 C1 6.29 1 10.58 1 15 C0.67 15 0.34 15 0 15 C0 10.05 0 5.1 0 0 Z " fill="#A68C79" transform="translate(47,87)"/>
<path d="M0 0 C1.65 0 3.3 0 5 0 C4.67 1.65 4.34 3.3 4 5 C5.32 5 6.64 5 8 5 C8.625 7.8125 8.625 7.8125 9 11 C8.01 12.485 8.01 12.485 7 14 C6.01 14 5.02 14 4 14 C3.67 12.68 3.34 11.36 3 10 C1.68 10 0.36 10 -1 10 C-0.67 6.7 -0.34 3.4 0 0 Z " fill="#F4D38B" transform="translate(53,23)"/>
<path d="M0 0 C2.3125 1.25 2.3125 1.25 3.3125 3.25 C2.3225 4.735 2.3225 4.735 1.3125 6.25 C1.3125 5.59 1.3125 4.93 1.3125 4.25 C0.6525 4.25 -0.0075 4.25 -0.6875 4.25 C-0.3575 5.24 -0.0275 6.23 0.3125 7.25 C-0.6775 7.745 -0.6775 7.745 -1.6875 8.25 C-1.6875 7.59 -1.6875 6.93 -1.6875 6.25 C-3.9975 5.92 -6.3075 5.59 -8.6875 5.25 C-9.0175 5.91 -9.3475 6.57 -9.6875 7.25 C-11.0075 6.92 -12.3275 6.59 -13.6875 6.25 C-13.0275 6.25 -12.3675 6.25 -11.6875 6.25 C-12.0175 4.93 -12.3475 3.61 -12.6875 2.25 C-11.32625 2.064375 -11.32625 2.064375 -9.9375 1.875 C-6.77600419 1.45031744 -6.77600419 1.45031744 -4.625 0.0625 C-2.6875 -0.75 -2.6875 -0.75 0 0 Z " fill="#E4C685" transform="translate(100.6875,49.75)"/>
<path d="M0 0 C0.33 0 0.66 0 1 0 C1 9.9 1 19.8 1 30 C-1.97 30 -4.94 30 -8 30 C-8 25.71 -8 21.42 -8 17 C-5.32072659 21.01891012 -5.84398752 23.24161923 -6 28 C-4.02 28 -2.04 28 0 28 C0 18.76 0 9.52 0 0 Z " fill="#B2997E" transform="translate(59,122)"/>
<path d="M0 0 C1.65 0 3.3 0 5 0 C5.12375 0.515625 5.2475 1.03125 5.375 1.5625 C6.18641628 4.72702351 7.0945913 7.86124985 8 11 C2 17 2 17 -0.25 17.3125 C-3.82321129 16.90645326 -5.3899565 15.38632549 -8 13 C-6.35 12.34 -4.7 11.68 -3 11 C-2.01 12.485 -2.01 12.485 -1 14 C0.98 13.34 2.96 12.68 5 12 C4.855625 11.29875 4.71125 10.5975 4.5625 9.875 C3.98521625 6.92443859 3.48304859 3.96729849 3 1 C2.01 0.67 1.02 0.34 0 0 Z " fill="#D5B386" transform="translate(29,45)"/>
<path d="M0 0 C0.99 0.33 1.98 0.66 3 1 C2.67 1.66 2.34 2.32 2 3 C5.63 3.33 9.26 3.66 13 4 C13 4.33 13 4.66 13 5 C11.906875 5.103125 10.81375 5.20625 9.6875 5.3125 C6.14440371 5.97307727 5.06756277 6.2027092 3 9 C2.01 8.34 1.02 7.68 0 7 C-0.33 7.99 -0.66 8.98 -1 10 C-3.31 10 -5.62 10 -8 10 C-8 9.67 -8 9.34 -8 9 C-6.35 9 -4.7 9 -3 9 C-2.01 6.03 -1.02 3.06 0 0 Z " fill="#CEB388" transform="translate(63,51)"/>
<path d="M0 0 C3.63 0 7.26 0 11 0 C11.33 1.65 11.66 3.3 12 5 C12.99 6.485 12.99 6.485 14 8 C14.125 10.6875 14.125 10.6875 14 13 C13.01 13 12.02 13 11 13 C9.39644899 9.49223216 8.77963136 6.85645121 9 3 C8.071875 3.061875 7.14375 3.12375 6.1875 3.1875 C3 3 3 3 0 0 Z " fill="#D5BD91" transform="translate(122,135)"/>
<path d="M0 0 C0.33 0 0.66 0 1 0 C1.04898438 1.03640625 1.09796875 2.0728125 1.1484375 3.140625 C1.22349597 4.51044208 1.29904247 5.88023248 1.375 7.25 C1.4059375 7.93191406 1.436875 8.61382812 1.46875 9.31640625 C1.68738254 13.06959827 2.216134 15.71998831 4 19 C4.24636612 21.70017269 4.09065666 24.28030006 4 27 C3.67 27 3.34 27 3 27 C2.67 30.96 2.34 34.92 2 39 C1.67 39 1.34 39 1 39 C-0.05736038 25.99069108 -0.11145896 13.04584256 0 0 Z " fill="#C1A57A" transform="translate(61,92)"/>
<path d="M0 0 C0 0.99 0 1.98 0 3 C-0.99 3 -1.98 3 -3 3 C-3 5.64 -3 8.28 -3 11 C-6.10551666 11 -7.35261084 10.4606285 -10 9 C-10 7.35 -10 5.7 -10 4 C-8.68 4 -7.36 4 -6 4 C-6 3.34 -6 2.68 -6 2 C-2.25 0 -2.25 0 0 0 Z " fill="#E4C588" transform="translate(126,31)"/>
<path d="M0 0 C-0.48756038 4.29053133 -1.24662348 6.69594818 -4 10 C-4.69580267 11.31836295 -5.37224433 12.64791086 -6 14 C-6 11.36 -6 8.72 -6 6 C-6.66 6.66 -7.32 7.32 -8 8 C-8.33 7.01 -8.66 6.02 -9 5 C-4.32258065 0 -4.32258065 0 0 0 Z " fill="#EBCE90" transform="translate(72,100)"/>
<path d="M0 0 C0.66 1.32 1.32 2.64 2 4 C3.423125 3.938125 3.423125 3.938125 4.875 3.875 C8 4 8 4 10 6 C4.555 6.495 4.555 6.495 -1 7 C-1.33 6.34 -1.66 5.68 -2 5 C-2.99 5 -3.98 5 -5 5 C-5.33 3.68 -5.66 2.36 -6 1 C-4.02 0.67 -2.04 0.34 0 0 Z " fill="#EACA89" transform="translate(77,59)"/>
<path d="M0 0 C0.33 0 0.66 0 1 0 C1.03738281 0.59167969 1.07476562 1.18335937 1.11328125 1.79296875 C1.51054897 6.56797099 1.95668 10.1045504 5 14 C5.66 14.33 6.32 14.66 7 15 C7 16.65 7 18.3 7 20 C5.68 20 4.36 20 3 20 C-0.13590328 12.79953539 -1.52791854 7.76691924 0 0 Z " fill="#CBB384" transform="translate(67,110)"/>
<path d="M0 0 C0.66 0.33 1.32 0.66 2 1 C2 1.66 2 2.32 2 3 C1.01 3 0.02 3 -1 3 C-0.67 4.98 -0.34 6.96 0 9 C-0.66 9 -1.32 9 -2 9 C-2 10.32 -2 11.64 -2 13 C-0.35 12.67 1.3 12.34 3 12 C3 13.65 3 15.3 3 17 C0.33333333 15.66666667 -2.33333333 14.33333333 -5 13 C-4.125 8.25 -4.125 8.25 -3 6 C-2.855625 5.154375 -2.71125 4.30875 -2.5625 3.4375 C-2.376875 2.633125 -2.19125 1.82875 -2 1 C-1.34 0.67 -0.68 0.34 0 0 Z " fill="#C6AD85" transform="translate(54,20)"/>
<path d="M0 0 C0.99 0.66 1.98 1.32 3 2 C3.29296875 4.3828125 3.29296875 4.3828125 3.1875 7.125 C3.16042969 8.03507812 3.13335937 8.94515625 3.10546875 9.8828125 C3.07066406 10.58148438 3.03585938 11.28015625 3 12 C1.68 12 0.36 12 -1 12 C-2.29643023 7.30044042 -1.93477538 4.47416806 0 0 Z " fill="#EBCD91" transform="translate(95,108)"/>
<path d="M0 0 C0.94148531 2.82445592 1.07311695 4.14171618 0.87890625 7.01171875 C0.83056641 7.76904297 0.78222656 8.52636719 0.73242188 9.30664062 C0.67634766 10.09232422 0.62027344 10.87800781 0.5625 11.6875 C0.51029297 12.48478516 0.45808594 13.28207031 0.40429688 14.10351562 C0.27480978 16.06936522 0.13809959 18.03473665 0 20 C-0.66 19.34 -1.32 18.68 -2 18 C-2 16.68 -2 15.36 -2 14 C-2.66 14 -3.32 14 -4 14 C-3.67 11.69 -3.34 9.38 -3 7 C-2.34 7 -1.68 7 -1 7 C-0.67 4.69 -0.34 2.38 0 0 Z " fill="#D2B481" transform="translate(74,132)"/>
<path d="M0 0 C0 2.97 0 5.94 0 9 C-2.31 9.33 -4.62 9.66 -7 10 C-4.5862069 0 -4.5862069 0 0 0 Z " fill="#E5C790" transform="translate(117,123)"/>
<path d="M0 0 C2.875 0.25 2.875 0.25 6 1 C7.375 3.0625 7.375 3.0625 8 5 C6.68 5.33 5.36 5.66 4 6 C4 7.65 4 9.3 4 11 C1.74754119 8.31158141 0.11786042 6.35358125 -1 3 C-0.67 2.01 -0.34 1.02 0 0 Z " fill="#C8AF82" transform="translate(77,19)"/>
<path d="M0 0 C0.33 0 0.66 0 1 0 C1.33 6.27 1.66 12.54 2 19 C4.64 19 7.28 19 10 19 C10 19.66 10 20.32 10 21 C6.7 21 3.4 21 0 21 C0 14.07 0 7.14 0 0 Z " fill="#E3C8A2" transform="translate(63,131)"/>
<path d="M0 0 C3 1 3 1 4.1875 2.75 C5.10819096 5.29960574 5.14948718 7.30923081 5 10 C3.35 10 1.7 10 0 10 C-0.19412181 8.52168779 -0.38012131 7.04230684 -0.5625 5.5625 C-0.66691406 4.73878906 -0.77132812 3.91507812 -0.87890625 3.06640625 C-0.91886719 2.38449219 -0.95882812 1.70257813 -1 1 C-0.67 0.67 -0.34 0.34 0 0 Z " fill="#E4CE8E" transform="translate(131,116)"/>
<path d="M0 0 C2.66698331 0.73853737 2.66698331 0.73853737 5.5625 -0.5 C6.5525 0.16 7.5425 0.82 8.5625 1.5 C8.60634447 3.16608987 8.6021713 4.83380554 8.5625 6.5 C9.47818906 8.75132517 9.47818906 8.75132517 10.5625 10.5 C8.5625 9.3125 8.5625 9.3125 6.5625 7.5 C6.4375 4.88671875 6.4375 4.88671875 6.5625 2.5 C4.9370692 2.64095064 3.31215949 2.78792087 1.6875 2.9375 C0.78257813 3.01871094 -0.12234375 3.09992187 -1.0546875 3.18359375 C-3.44860861 3.36989285 -3.44860861 3.36989285 -5.4375 4.5 C-5.0625 2.5625 -5.0625 2.5625 -4.4375 0.5 C-2.4375 -0.5 -2.4375 -0.5 0 0 Z " fill="#B29D80" transform="translate(123.4375,27.5)"/>
<path d="M0 0 C2.31 0 4.62 0 7 0 C7 1.65 7 3.3 7 5 C6.34 4.67 5.68 4.34 5 4 C5.33 3.34 5.66 2.68 6 2 C5.01 2 4.02 2 3 2 C2.67 4.64 2.34 7.28 2 10 C-0.64 10 -3.28 10 -6 10 C-6 9.67 -6 9.34 -6 9 C-4.02 9 -2.04 9 0 9 C0 6.03 0 3.06 0 0 Z " fill="#C0A77F" transform="translate(54,66)"/>
<path d="M0 0 C0.66 0 1.32 0 2 0 C2 3.96 2 7.92 2 12 C1.01 12 0.02 12 -1 12 C-1.02698189 10.37509046 -1.04638757 8.75005367 -1.0625 7.125 C-1.07410156 6.22007812 -1.08570312 5.31515625 -1.09765625 4.3828125 C-1 2 -1 2 0 0 Z " fill="#F8D68F" transform="translate(97,139)"/>
<path d="M0 0 C0.66 0.33 1.32 0.66 2 1 C2 3.31 2 5.62 2 8 C0.35 8 -1.3 8 -3 8 C-3.33 6.35 -3.66 4.7 -4 3 C-2.68 2.01 -1.36 1.02 0 0 Z " fill="#E1C286" transform="translate(52,61)"/>
<path d="M0 0 C1.65 0 3.3 0 5 0 C3.6302836 3.99500618 1.74277578 6.80009492 -1 10 C-1.125 2.25 -1.125 2.25 0 0 Z " fill="#F7CE8D" transform="translate(97,89)"/>
<path d="M0 0 C1.98 0.495 1.98 0.495 4 1 C2.375 6.75 2.375 6.75 -1 9 C-0.67 6.03 -0.34 3.06 0 0 Z M-6 8 C-3.525 8.495 -3.525 8.495 -1 9 C-2.98 9.99 -2.98 9.99 -5 11 C-5.33 10.01 -5.66 9.02 -6 8 Z " fill="#D8BD81" transform="translate(93,57)"/>
<path d="M0 0 C1.51400391 0.01740234 1.51400391 0.01740234 3.05859375 0.03515625 C4.07050781 0.04417969 5.08242187 0.05320313 6.125 0.0625 C7.29869141 0.07990234 7.29869141 0.07990234 8.49609375 0.09765625 C8.49609375 0.75765625 8.49609375 1.41765625 8.49609375 2.09765625 C1.06752232 3.38337054 1.06752232 3.38337054 -2.50390625 2.09765625 C-2.50390625 3.74765625 -2.50390625 5.39765625 -2.50390625 7.09765625 C-2.83390625 7.09765625 -3.16390625 7.09765625 -3.50390625 7.09765625 C-3.54644981 5.09810879 -3.54471408 3.09723989 -3.50390625 1.09765625 C-2.50390625 0.09765625 -2.50390625 0.09765625 0 0 Z " fill="#B39D7A" transform="translate(107.50390625,134.90234375)"/>
<path d="M0 0 C2.97 0.495 2.97 0.495 6 1 C6 2.65 6 4.3 6 6 C4.68 6.33 3.36 6.66 2 7 C2 6.34 2 5.68 2 5 C1.01 4.34 0.02 3.68 -1 3 C-0.67 2.01 -0.34 1.02 0 0 Z " fill="#F3D080" transform="translate(85,92)"/>
<path d="M0 0 C1.65 0 3.3 0 5 0 C5.12375 0.515625 5.2475 1.03125 5.375 1.5625 C5.89392128 3.58629299 6.52681722 5.58045166 7.1875 7.5625 C7.455625 8.696875 7.72375 9.83125 8 11 C7.01 12.485 7.01 12.485 6 14 C5.34 13.67 4.68 13.34 4 13 C4.20625 12.319375 4.4125 11.63875 4.625 10.9375 C5.10959208 7.14152867 4.36536923 4.54995999 3 1 C2.01 0.67 1.02 0.34 0 0 Z " fill="#A29274" transform="translate(29,45)"/>
<path d="M0 0 C0.66 0 1.32 0 2 0 C2 0.66 2 1.32 2 2 C3.98 2 5.96 2 8 2 C8.33 1.34 8.66 0.68 9 0 C9.5625 1.9375 9.5625 1.9375 10 4 C9 5 9 5 6.125 5.375 C4.578125 5.189375 4.578125 5.189375 3 5 C1.125 2.5 1.125 2.5 0 0 Z " fill="#D8C090" transform="translate(122,147)"/>
<path d="M0 0 C0 1.32 0 2.64 0 4 C-2.31 4 -4.62 4 -7 4 C-6.6875 2.0625 -6.6875 2.0625 -6 0 C-3 -1 -3 -1 0 0 Z " fill="#F7D684" transform="translate(72,146)"/>
<path d="M0 0 C0.12375 0.5775 0.2475 1.155 0.375 1.75 C0.91843033 4.03560051 0.91843033 4.03560051 2.125 6.0625 C3 8 3 8 2 11 C0.68 11 -0.64 11 -2 11 C-1.125 3.375 -1.125 3.375 0 0 Z " fill="#D7B682" transform="translate(102,113)"/>
<path d="M0 0 C3.0276094 1.5138047 3.42368365 3.90823033 4.53515625 6.98828125 C5 9 5 9 4.1875 11.5 C3.795625 11.995 3.40375 12.49 3 13 C2.70996094 12.16855469 2.70996094 12.16855469 2.4140625 11.3203125 C2.15367188 10.59585938 1.89328125 9.87140625 1.625 9.125 C1.36976562 8.40570313 1.11453125 7.68640625 0.8515625 6.9453125 C0.06122217 4.81842006 0.06122217 4.81842006 -2 3 C-1.34 3 -0.68 3 0 3 C0 2.01 0 1.02 0 0 Z " fill="#C7AD81" transform="translate(98,100)"/>
<path d="M0 0 C3 3 3 3 3.29296875 5.26171875 C3.25816406 6.06222656 3.22335938 6.86273438 3.1875 7.6875 C3.16042969 8.49574219 3.13335937 9.30398437 3.10546875 10.13671875 C3.07066406 10.75160156 3.03585938 11.36648437 3 12 C2.01 12 1.02 12 0 12 C0 8.04 0 4.08 0 0 Z " fill="#AA936F" transform="translate(117,63)"/>
<path d="M0 0 C0.66 0.33 1.32 0.66 2 1 C2 2.32 2 3.64 2 5 C2.66 5.33 3.32 5.66 4 6 C1 8 1 8 -1.1875 7.625 C-1.785625 7.41875 -2.38375 7.2125 -3 7 C-3 5.02 -3 3.04 -3 1 C-2.01 2.485 -2.01 2.485 -1 4 C-0.67 2.68 -0.34 1.36 0 0 Z " fill="#C4AA83" transform="translate(100,58)"/>
<path d="M0 0 C-1.0625 1.5 -1.0625 1.5 -3 3 C-6.6875 3.1875 -6.6875 3.1875 -10 3 C-10 2.34 -10 1.68 -10 1 C-10.66 0.67 -11.32 0.34 -12 0 C-7.74433453 -1.16063604 -4.3164922 -0.76173392 0 0 Z " fill="#F9D492" transform="translate(98,49)"/>
<path d="M0 0 C0.66 0 1.32 0 2 0 C2.25 2.75 2.25 2.75 2 6 C0.125 8.25 0.125 8.25 -2 10 C-2.66 10.66 -3.32 11.32 -4 12 C-3.67 10.02 -3.34 8.04 -3 6 C-2.34 6 -1.68 6 -1 6 C-0.67 4.02 -0.34 2.04 0 0 Z " fill="#BDA37E" transform="translate(105,126)"/>
<path d="M0 0 C1.32 0 2.64 0 4 0 C4 0.99 4 1.98 4 3 C5.32 3.66 6.64 4.32 8 5 C5.69 5.33 3.38 5.66 1 6 C0.67 4.02 0.34 2.04 0 0 Z " fill="#F5DA76" transform="translate(112,80)"/>
<path d="M0 0 C1.65 0 3.3 0 5 0 C5.33 0.99 5.66 1.98 6 3 C6.66 3 7.32 3 8 3 C8.33 4.98 8.66 6.96 9 9 C8.34 9 7.68 9 7 9 C6.731875 8.21625 6.46375 7.4325 6.1875 6.625 C5.15185568 3.71885077 5.15185568 3.71885077 2 2 C1.34 2.66 0.68 3.32 0 4 C0 2.68 0 1.36 0 0 Z " fill="#B6A37A" transform="translate(106,67)"/>
<path d="M0 0 C2.64 0 5.28 0 8 0 C8.33 0.99 8.66 1.98 9 3 C7.35 3 5.7 3 4 3 C3.67 3.66 3.34 4.32 3 5 C1.68 4.67 0.36 4.34 -1 4 C-0.34 4 0.32 4 1 4 C0.67 2.68 0.34 1.36 0 0 Z " fill="#CAB182" transform="translate(88,52)"/>
<path d="M0 0 C3 2 3 2 3.6875 4.625 C3.790625 5.40875 3.89375 6.1925 4 7 C3.01 7 2.02 7 1 7 C0.67 6.01 0.34 5.02 0 4 C-1.65 4.33 -3.3 4.66 -5 5 C-3.35 3.35 -1.7 1.7 0 0 Z " fill="#A69375" transform="translate(108,27)"/>
<path d="M0 0 C0.99 0.66 1.98 1.32 3 2 C2.67 3.32 2.34 4.64 2 6 C0.35 5.67 -1.3 5.34 -3 5 C-3 6.65 -3 8.3 -3 10 C-3.33 10 -3.66 10 -4 10 C-4.25 7.25 -4.25 7.25 -4 4 C-2 1.625 -2 1.625 0 0 Z " fill="#CAA884" transform="translate(99,121)"/>
<path d="M0 0 C2.97 0.495 2.97 0.495 6 1 C6 2.98 6 4.96 6 7 C7.65 7 9.3 7 11 7 C11 7.33 11 7.66 11 8 C9.02 8 7.04 8 5 8 C4.54625 7.05125 4.0925 6.1025 3.625 5.125 C2.19761746 1.99686321 2.19761746 1.99686321 0 0 Z " fill="#C29F79" transform="translate(125,119)"/>
<path d="M0 0 C3.3 0.33 6.6 0.66 10 1 C10 1.66 10 2.32 10 3 C6.7 3 3.4 3 0 3 C0 2.01 0 1.02 0 0 Z " fill="#D4BD93" transform="translate(22,45)"/>
<path d="M0 0 C2.125 0.9375 2.125 0.9375 4 2 C3.67 3.65 3.34 5.3 3 7 C0.5 5.6875 0.5 5.6875 -2 4 C-2 3.01 -2 2.02 -2 1 C-1.34 0.67 -0.68 0.34 0 0 Z " fill="#CAB58C" transform="translate(61,20)"/>
<path d="M0 0 C0.66 0.33 1.32 0.66 2 1 C2 2.65 2 4.3 2 6 C-0.49092811 7.24546405 -1.41080733 6.7767578 -4 6 C-3.67 5.01 -3.34 4.02 -3 3 C-2.01 3 -1.02 3 0 3 C0 2.01 0 1.02 0 0 Z " fill="#DCC89A" transform="translate(51,49)"/>
<path d="M0 0 C0.66 0.33 1.32 0.66 2 1 C2 1.66 2 2.32 2 3 C1.01 3 0.02 3 -1 3 C-0.67 4.98 -0.34 6.96 0 9 C-1.32 8.67 -2.64 8.34 -4 8 C-3.67 7.34 -3.34 6.68 -3 6 C-2.855625 5.154375 -2.71125 4.30875 -2.5625 3.4375 C-2.376875 2.633125 -2.19125 1.82875 -2 1 C-1.34 0.67 -0.68 0.34 0 0 Z " fill="#B5997D" transform="translate(54,20)"/>
<path d="M0 0 C0.66 0.33 1.32 0.66 2 1 C2 2.98 2 4.96 2 7 C-1 6 -1 6 -3 3 C-2.01 2.01 -1.02 1.02 0 0 Z " fill="#F6D589" transform="translate(95,111)"/>
<path d="M0 0 C0.598125 0.350625 1.19625 0.70125 1.8125 1.0625 C0.625 2.625 0.625 2.625 -1.1875 4.0625 C-3.875 3.75 -3.875 3.75 -6.1875 3.0625 C-5.8575 2.0725 -5.5275 1.0825 -5.1875 0.0625 C-2.1875 -0.9375 -2.1875 -0.9375 0 0 Z " fill="#EDCE88" transform="translate(115.1875,61.9375)"/>
<path d="M0 0 C2.1385485 2.1385485 2.42655063 3.13275314 3 6 C5.97 6.495 5.97 6.495 9 7 C9 7.33 9 7.66 9 8 C6.03 8 3.06 8 0 8 C0 5.36 0 2.72 0 0 Z " fill="#B59E7C" transform="translate(104,53)"/>
<path d="M0 0 C0.66 0 1.32 0 2 0 C2 0.66 2 1.32 2 2 C3.32 2.66 4.64 3.32 6 4 C6 4.33 6 4.66 6 5 C3.36 5 0.72 5 -2 5 C-1.34 3.35 -0.68 1.7 0 0 Z " fill="#D7B984" transform="translate(80,94)"/>
<path d="M0 0 C3.96 0 7.92 0 12 0 C12 0.33 12 0.66 12 1 C10.4221875 1.2165625 10.4221875 1.2165625 8.8125 1.4375 C5.84539451 1.87526966 2.93205634 2.37804866 0 3 C0 2.01 0 1.02 0 0 Z " fill="#AB8F72" transform="translate(61,87)"/>
<path d="M0 0 C3.63 0.33 7.26 0.66 11 1 C11 1.33 11 1.66 11 2 C9.906875 2.103125 8.81375 2.20625 7.6875 2.3125 C4.14440371 2.97307727 3.06756277 3.2027092 1 6 C0.67 4.02 0.34 2.04 0 0 Z " fill="#B49D6F" transform="translate(65,54)"/>
<path d="M0 0 C2 1.1875 2 1.1875 4 3 C4.25 5.6875 4.25 5.6875 4 8 C3.01 8 2.02 8 1 8 C0.67 5.36 0.34 2.72 0 0 Z " fill="#C8B284" transform="translate(132,140)"/>
<path d="M0 0 C0.598125 0.61875 1.19625 1.2375 1.8125 1.875 C4.00811144 4.13676954 4.00811144 4.13676954 7 6 C4.03 6 1.06 6 -2 6 C-1.34 4.02 -0.68 2.04 0 0 Z " fill="#B08E6C" transform="translate(90,43)"/>
<path d="M0 0 C0.33 0.66 0.66 1.32 1 2 C-1.64 2.33 -4.28 2.66 -7 3 C-7.33 2.34 -7.66 1.68 -8 1 C-5.29120665 -0.35439668 -2.99066732 -0.06501451 0 0 Z " fill="#F3D598" transform="translate(89,123)"/>
<path d="M0 0 C2.4375 0.375 2.4375 0.375 5 1 C5.33 1.66 5.66 2.32 6 3 C5.21625 3.12375 4.4325 3.2475 3.625 3.375 C0.85942178 3.79117993 0.85942178 3.79117993 -1 6 C-0.67 4.02 -0.34 2.04 0 0 Z " fill="#CDB08B" transform="translate(43,42)"/>
<path d="M0 0 C1.32 0.33 2.64 0.66 4 1 C4 2.32 4 3.64 4 5 C2.68 5 1.36 5 0 5 C0 3.35 0 1.7 0 0 Z " fill="#FAD194" transform="translate(60,80)"/>
<path d="M0 0 C1.98 0.99 1.98 0.99 4 2 C4 2.99 4 3.98 4 5 C2.68 5 1.36 5 0 5 C0 3.35 0 1.7 0 0 Z " fill="#FBD38C" transform="translate(80,69)"/>
<path d="M0 0 C2.31 0 4.62 0 7 0 C4 2 4 2 2 2 C2 3.32 2 4.64 2 6 C1.34 6 0.68 6 0 6 C0 4.02 0 2.04 0 0 Z " fill="#F4D49A" transform="translate(106,61)"/>
<path d="M0 0 C1.98 0.66 3.96 1.32 6 2 C5.01 2.99 4.02 3.98 3 5 C2.01 4.67 1.02 4.34 0 4 C0 2.68 0 1.36 0 0 Z " fill="#F1CF86" transform="translate(65,50)"/>
<path d="M0 0 C0.33 0 0.66 0 1 0 C1.66 2.97 2.32 5.94 3 9 C1.02 9 -0.96 9 -3 9 C-2.01 8.67 -1.02 8.34 0 8 C0 5.36 0 2.72 0 0 Z " fill="#9D8C74" transform="translate(99,143)"/>
<path d="M0 0 C2.31 0 4.62 0 7 0 C5.8125 1.5625 5.8125 1.5625 4 3 C1.3125 2.6875 1.3125 2.6875 -1 2 C-0.67 1.34 -0.34 0.68 0 0 Z " fill="#F5D29E" transform="translate(66,88)"/>
<path d="M0 0 C0.66 0.99 1.32 1.98 2 3 C1.67 3.99 1.34 4.98 1 6 C-0.98 6 -2.96 6 -5 6 C-4.67 5.34 -4.34 4.68 -4 4 C-2.68 4 -1.36 4 0 4 C0 2.68 0 1.36 0 0 Z " fill="#A08B77" transform="translate(86,26)"/>
</svg>
